<svg xmlns="http://www.w3.org/2000/svg" width="675" height="190">
    <g fill="#FFF" fill-rule="evenodd">
        <path fill-rule="nonzero" d="M1.546 109.2h21.432c8.36 0 15.542 1.634 21.546 4.902 6.004 3.268 10.602 7.904 13.794 13.908s4.788 13.034 4.788 21.09-1.596 15.086-4.788 21.09-7.79 10.64-13.794 13.908C38.52 187.366 31.338 189 22.978 189H1.546v-79.8zm21.432 74.1c10.716 0 19.038-3.059 24.966-9.177 5.928-6.118 8.892-14.459 8.892-25.023 0-10.64-2.945-19-8.835-25.08-5.89-6.08-14.231-9.12-25.023-9.12H7.702v68.4h15.276zm48.339 5.7l30.78-79.8h7.296l30.78 79.8h-6.612l-9.576-24.396H87.277L77.7 189h-6.384zM89.1 158.904h33.06l-16.53-42.978-16.53 42.978zm66.009 5.472c.38 6.004 2.698 10.773 6.954 14.307 4.256 3.534 9.766 5.301 16.53 5.301 6.536 0 11.761-1.463 15.675-4.389 3.914-2.926 5.871-6.935 5.871-12.027 0-3.648-1.045-6.536-3.135-8.664s-4.769-3.705-8.037-4.731c-3.268-1.026-7.448-1.957-12.54-2.793-5.32-.912-9.766-2.033-13.338-3.363-3.572-1.33-6.536-3.382-8.892-6.156-2.356-2.774-3.534-6.555-3.534-11.343 0-4.408 1.102-8.284 3.306-11.628 2.204-3.344 5.339-5.928 9.405-7.752 4.066-1.824 8.759-2.736 14.079-2.736 7.904 0 14.345 2.071 19.323 6.213 4.978 4.142 7.771 9.633 8.379 16.473l-6.042.114c-.684-5.244-2.964-9.424-6.84-12.54-3.876-3.116-8.816-4.674-14.82-4.674-6.308 0-11.324 1.425-15.048 4.275-3.724 2.85-5.586 6.821-5.586 11.913 0 3.572.988 6.384 2.964 8.436 1.976 2.052 4.465 3.534 7.467 4.446 3.002.912 7.125 1.824 12.369 2.736 5.32.836 9.861 1.957 13.623 3.363 3.762 1.406 6.878 3.553 9.348 6.441 2.47 2.888 3.705 6.726 3.705 11.514 0 4.408-1.159 8.322-3.477 11.742-2.318 3.42-5.567 6.08-9.747 7.98-4.18 1.9-9.044 2.85-14.592 2.85-5.776 0-10.849-1.045-15.219-3.135-4.37-2.09-7.79-5.054-10.26-8.892-2.47-3.838-3.819-8.265-4.047-13.281h6.156zm69.087-55.29h6.156v36.366h46.17v-36.366h6.156V189h-6.156v-37.848h-46.17V189h-6.156v-79.914zm106.48.114c7.98 0 14.135 1.786 18.467 5.358 4.332 3.572 6.498 8.55 6.498 14.934 0 4.864-1.31 8.892-3.933 12.084-2.622 3.192-6.365 5.32-11.229 6.384 5.928.988 10.545 3.059 13.851 6.213 3.306 3.154 4.96 7.543 4.96 13.167 0 6.764-2.414 12.065-7.24 15.903-4.826 3.838-11.799 5.757-20.919 5.757H303.43v-79.8h27.246zm-21.09 36.252h21.317c5.928 0 10.507-1.368 13.737-4.104 3.23-2.736 4.845-6.498 4.845-11.286 0-4.788-1.615-8.531-4.845-11.229-3.23-2.698-7.809-4.047-13.737-4.047h-21.318v30.666zm0 37.962h21.545c7.068 0 12.464-1.444 16.188-4.332 3.724-2.888 5.586-6.878 5.586-11.97 0-5.244-1.9-9.234-5.7-11.97-3.8-2.736-9.158-4.104-16.074-4.104h-21.546v32.376zM449.581 149.1c0 7.752-1.577 14.725-4.731 20.919-3.154 6.194-7.562 11.02-13.224 14.478s-12.103 5.187-19.323 5.187c-7.22 0-13.661-1.729-19.323-5.187-5.662-3.458-10.07-8.284-13.224-14.478-3.154-6.194-4.731-13.167-4.731-20.919 0-7.752 1.577-14.725 4.73-20.919 3.155-6.194 7.563-11.02 13.225-14.478s12.103-5.187 19.323-5.187c7.22 0 13.66 1.729 19.323 5.187 5.662 3.458 10.07 8.284 13.224 14.478 3.154 6.194 4.73 13.167 4.73 20.919zm-68.172 0c0 6.764 1.31 12.787 3.933 18.069 2.622 5.282 6.27 9.405 10.944 12.369 4.674 2.964 10.013 4.446 16.017 4.446s11.362-1.482 16.074-4.446c4.712-2.964 8.379-7.087 11-12.369 2.623-5.282 3.934-11.305 3.934-18.069 0-6.764-1.311-12.787-3.933-18.069-2.622-5.282-6.29-9.405-11.001-12.369-4.712-2.964-10.07-4.446-16.074-4.446-6.004 0-11.343 1.482-16.017 4.446-4.674 2.964-8.322 7.087-10.944 12.369-2.622 5.282-3.933 11.305-3.933 18.069zm76.497 39.9l30.78-79.8h7.296l30.78 79.8h-6.612l-9.576-24.396h-36.708L464.29 189h-6.384zm17.784-30.096h33.06l-16.53-42.978-16.53 42.978zM570.77 109.2c7.6 0 13.68 2.109 18.24 6.327 4.56 4.218 6.84 9.861 6.84 16.929 0 5.852-1.691 10.754-5.073 14.706-3.382 3.952-7.923 6.422-13.623 7.41L596.078 189h-6.954l-18.126-33.288H547.4V189h-6.156v-79.8h29.526zm-23.37 40.812h22.914c5.852 0 10.526-1.596 14.022-4.788 3.496-3.192 5.244-7.448 5.244-12.768s-1.729-9.576-5.187-12.768-8.113-4.788-13.965-4.788H547.4v35.112zm66.01-40.812h21.431c8.36 0 15.542 1.634 21.546 4.902 6.004 3.268 10.602 7.904 13.794 13.908s4.788 13.034 4.788 21.09-1.596 15.086-4.788 21.09-7.79 10.64-13.794 13.908c-6.004 3.268-13.186 4.902-21.546 4.902H613.41v-79.8zm21.431 74.1c10.716 0 19.038-3.059 24.966-9.177 5.928-6.118 8.892-14.459 8.892-25.023 0-10.64-2.945-19-8.835-25.08-5.89-6.08-14.23-9.12-25.023-9.12h-15.276v68.4h15.276z"/>
        <path d="M35.774 37.398c2.901 0 5.253.029 5.253 2.84 0 2.81-2.352 3.297-5.253 3.297l-13.637.425c-13.204 0-20.612-9.03-20.612-21.823 0-6.298 2.286-11.414 5.685-15.176C10.715 3.082 15.433.654 22.137.654h35.167c1.877 0 3.61.235 4.55 1.81.49.823.57 1.257.548 1.712-.02.415-.101.848-.549 1.599-.938 1.574-2.672 1.82-4.55 1.82H22.138c-3.6.046-7.71 1.628-10.335 4.287-2.725 2.76-3.897 6.662-3.897 10.282 0 7.107 6.896 14.961 14.232 15.053l13.637.181z"/>
        <path d="M26.659 43.796c-2.902 0-5.254-.21-5.254-3.02s2.352-3.378 5.254-3.378h13.636c6.488 0 11.211 2.146 14.767 5.88 3.682 3.867 6.08 9.09 6.08 15.598 0 12.793-7.64 21.167-20.847 21.167H5.13c-1.877 0-3.611.082-4.55-1.493C.112 77.766.002 77.333 0 76.9c-.002-.436.108-1.188.58-1.979.938-1.574 2.672-1.503 4.549-1.503h35.166c3.58-.045 7.632-1.318 10.221-3.947 2.716-2.758 3.883-6.957 3.883-10.595 0-7.107-6.768-14.988-14.104-15.08H26.66z"/>
        <path fill-opacity=".5" d="M7.222 78.155l-5.697-4.076L54.184.654l5.403 3.866z"/>
        <path fill-rule="nonzero" d="M84.467.044h7.17l26.405 43.837L144.675.044h6.943l-30.503 50.573V80.07h-6.146V50.617L84.467.044zm89.476 80.026V.158h5.804l47.12 68.61V.158h6.032V80.07h-5.804l-47.12-68.724V80.07h-6.032zM256.248.158h60.778v5.708H289.71V80.07h-6.146V5.866h-27.316V.158zm84.127-.114h6.146v36.417h46.095V.044h6.147V80.07h-6.147V42.169h-46.095v37.9h-6.146V.045zm87.313.114h49.055v5.708h-42.909v30.595H469.8v5.708h-35.966v32.193h44.389v5.708h-50.535V.158zm67.055 0h60.777v5.708h-27.315V80.07h-6.147V5.866h-27.315V.158zm84.126 0h6.146V80.07h-6.146V.158zm58.404 39.043L611.096.158h7.17l22.991 34.134L664.362.158h6.601l-26.178 39.043L672.67 80.07h-7.284l-24.584-35.846-24.698 35.846h-6.716l27.885-40.87z"/>
    </g>
</svg>
