<?xml version="1.0" encoding="UTF-8"?>
<svg width="704px" height="147px" viewBox="0 0 704 147" version="1.1" xmlns="http://www.w3.org/2000/svg" xmlns:xlink="http://www.w3.org/1999/xlink">
    <!-- Generator: Sketch 51.2 (57519) - http://www.bohemiancoding.com/sketch -->
    <title>Cryptology Logo</title>
    <desc>Created with Sketch.</desc>
    <defs></defs>
    <g id="Cryptology-Logo" stroke="none" stroke-width="1" fill="none" fill-rule="evenodd">
        <g id="logo-87e9a8fc165c4b39b665759f2a43597a" fill-rule="nonzero">
            <path d="M122.587013,51.9373882 C122.228571,51.9373882 121.87013,51.5804302 121.511688,51.5804302 L120.436364,41.9425643 L131.18961,40.1577743 C131.18961,40.5147323 131.548052,40.8716903 131.548052,40.8716903 C131.906494,41.2286483 122.587013,51.9373882 122.587013,51.9373882 Z M105.023377,42.6564803 C104.664935,41.5856063 103.948052,40.8716903 102.872727,40.5147323 L103.58961,28.0212025 L115.418182,29.4490345 C115.418182,30.5199085 116.135065,31.5907825 117.21039,31.9477405 C117.21039,31.9477405 117.568831,31.9477405 117.568831,31.9477405 C117.927273,31.9477405 117.927273,31.9477405 118.285714,32.3046985 C118.285714,32.3046985 118.644156,32.3046985 118.644156,32.3046985 L119.361039,39.8008164 L105.023377,42.6564803 Z M103.948052,21.9529166 L115.05974,28.7351185 L103.58961,27.3072866 L103.948052,21.9529166 Z M102.514286,19.0972527 L93.1948052,13.7428828 L100.363636,13.3859248 C100.722078,14.4567988 101.797403,15.1707148 102.872727,15.5276727 C102.514286,15.5276727 102.514286,19.0972527 102.514286,19.0972527 Z M102.155844,26.5933706 L92.1194805,25.1655386 C91.761039,21.2390007 86.025974,21.2390007 85.3090909,25.1655386 C85.3090909,26.2364126 85.3090909,26.9503286 86.025974,27.6642445 L81.3662338,33.3755725 L76.7064935,31.2338245 C77.0649351,30.1629505 76.7064935,29.4490345 75.9896104,28.3781605 C75.6311688,28.0212025 75.2727273,27.6642445 74.5558442,27.3072866 C73.4805195,26.9503286 72.0467532,26.9503286 70.9714286,27.6642445 C70.612987,28.0212025 70.2545455,28.3781605 69.8961039,29.0920765 C69.5376623,29.8059925 69.5376623,30.8768665 69.8961039,31.9477405 L66.6701299,34.0894884 L57.3506494,18.3833367 C57.3506494,18.3833367 57.7090909,18.0263787 57.7090909,18.0263787 C58.0675325,17.6694207 58.425974,16.9555047 58.425974,16.5985467 L90.6857143,14.4567988 L102.155844,20.8820427 C102.155844,23.0237906 102.155844,24.8085806 102.155844,26.5933706 Z M101.080519,40.5147323 C100.363636,40.5147323 99.6467532,41.2286483 98.9298701,41.5856063 L82.4415584,34.0894884 L87.1012987,28.7351185 C88.8935065,29.4490345 91.0441558,28.7351185 91.761039,26.9503286 L101.797403,28.3781605 C101.797403,28.3781605 101.080519,40.5147323 101.080519,40.5147323 Z M73.838961,41.9425643 C73.1220779,41.5856063 72.0467532,41.5856063 71.3298701,41.5856063 L67.387013,35.1603624 L70.612987,33.0186145 C70.9714286,33.3755725 70.9714286,33.3755725 71.3298701,33.3755725 C72.4051948,34.0894884 73.838961,33.7325304 74.9142857,33.0186145 C75.2727273,32.6616565 75.2727273,32.6616565 75.6311688,32.3046985 L79.9324675,34.4464464 C79.9324675,34.4464464 73.838961,41.9425643 73.838961,41.9425643 Z M37.9948052,53.3652201 C37.6363636,53.0082621 37.6363636,53.0082621 37.2779221,52.6513041 L41.2207792,35.1603624 C42.6545455,35.1603624 44.0883117,34.0894884 44.4467532,32.6616565 C44.4467532,32.6616565 44.4467532,32.6616565 44.4467532,32.6616565 C44.4467532,32.6616565 44.4467532,32.6616565 44.4467532,32.6616565 C44.4467532,32.3046985 44.4467532,31.9477405 44.4467532,31.5907825 C44.4467532,31.5907825 44.4467532,31.2338245 44.4467532,31.2338245 C44.4467532,30.8768665 44.0883117,30.1629505 43.7298701,29.8059925 L53.4077922,18.3833367 C54.1246753,18.7402947 55.2,18.7402947 55.9168831,18.7402947 L65.2363636,34.4464464 L37.9948052,53.3652201 Z M35.8441558,52.6513041 C35.8441558,52.6513041 35.4857143,52.6513041 35.4857143,52.6513041 C34.7688312,52.6513041 34.4103896,53.0082621 34.0519481,53.3652201 C32.6181818,54.4360941 32.2597403,56.2208841 32.9766234,57.6487161 L20.4311688,68.3574559 L13.9792208,60.861338 C13.9792208,60.50438 14.3376623,60.147422 14.3376623,59.790464 C14.3376623,59.790464 14.3376623,59.433506 14.3376623,59.433506 C14.3376623,59.433506 14.3376623,59.433506 14.3376623,59.433506 C14.3376623,59.433506 14.3376623,59.433506 14.3376623,59.433506 C14.3376623,59.433506 14.3376623,59.433506 14.3376623,59.433506 C14.3376623,58.71959 14.3376623,58.0056741 13.9792208,57.6487161 C13.9792208,57.6487161 13.9792208,57.6487161 13.9792208,57.6487161 C13.9792208,57.2917581 13.6207792,56.9348001 13.2623377,56.5778421 C13.2623377,56.5778421 13.2623377,56.5778421 12.9038961,56.5778421 L23.6571429,36.9451524 L37.6363636,34.0894884 C37.9948052,34.8034044 38.7116883,35.5173204 39.4285714,35.8742784 C39.787013,35.1603624 35.8441558,52.6513041 35.8441558,52.6513041 Z M36.561039,92.2736415 L40.8623377,106.195003 L30.825974,101.554549 C31.5428571,98.6988854 27.9584416,96.5571374 25.4493506,97.9849694 C22.5818182,99.7697594 24.0155844,104.053255 27.2415584,104.053255 L29.7506494,114.761995 C29.7506494,114.761995 29.7506494,114.761995 29.3922078,114.761995 C29.0337662,114.761995 29.0337662,115.118953 28.6753247,115.475911 L15.412987,107.622835 C16.1298701,105.838045 14.6961039,103.696297 12.9038961,103.339339 L12.5454545,85.8483976 L33.3350649,89.0610195 C33.3350649,89.4179775 33.3350649,89.4179775 33.3350649,89.7749355 C33.3350649,90.1318935 33.6935065,90.4888515 33.6935065,90.8458095 C33.6935065,90.8458095 33.6935065,90.8458095 33.6935065,91.2027675 C34.4103896,91.9166835 35.1272727,92.2736415 35.8441558,92.2736415 C36.2025974,92.2736415 36.561039,92.2736415 36.561039,92.2736415 Z M44.4467532,118.688533 L34.7688312,117.974617 C34.7688312,116.903743 34.0519481,116.189827 32.9766234,115.475911 C32.6181818,115.475911 32.2597403,115.118953 32.2597403,115.118953 C31.9012987,115.118953 31.5428571,115.118953 31.1844156,115.118953 L28.6753247,104.410213 C29.0337662,104.053255 29.7506494,103.696297 30.1090909,103.339339 L41.5792208,108.336751 C41.5792208,108.336751 44.4467532,118.688533 44.4467532,118.688533 Z M60.9350649,116.903743 L57.7090909,119.759407 L46.238961,119.045491 L43.3714286,109.407625 L60.9350649,116.903743 Z M62.3688312,117.260701 L68.8207792,120.116365 L59.8597403,119.402449 C59.8597403,119.759407 62.3688312,117.260701 62.3688312,117.260701 Z M73.1220779,107.979793 C74.9142857,109.050667 77.0649351,108.693709 78.1402597,106.908919 L89.2519481,109.764583 L75.2727273,119.045491 C74.9142857,118.688533 74.5558442,118.688533 74.1974026,118.331575 C73.838961,118.331575 73.838961,117.974617 73.4805195,117.974617 C73.4805195,117.974617 73.1220779,117.974617 73.1220779,117.974617 C72.7636364,117.974617 72.4051948,117.974617 72.0467532,117.974617 C72.0467532,117.974617 71.6883117,117.974617 71.6883117,117.974617 C70.9714286,118.331575 70.2545455,118.688533 69.8961039,119.045491 L63.0857143,116.189827 C63.4441558,116.189827 73.1220779,107.979793 73.1220779,107.979793 Z M91.0441558,110.478499 L115.05974,117.260701 L76.3480519,120.473323 C76.3480519,120.473323 76.3480519,120.473323 76.3480519,120.116365 L91.0441558,110.478499 Z M111.116883,97.9849694 C111.833766,98.6988854 112.550649,99.0558434 113.625974,99.0558434 L117.927273,114.761995 C117.568831,114.761995 117.568831,115.118953 117.21039,115.118953 C116.851948,115.475911 116.851948,115.832869 116.493506,115.832869 L93.1948052,109.407625 C92.8363636,109.407625 111.116883,97.9849694 111.116883,97.9849694 Z M115.05974,98.3419274 C115.418182,98.3419274 115.776623,97.9849694 115.776623,97.6280114 L128.680519,105.124129 C128.322078,106.195003 128.322078,106.908919 129.038961,107.979793 L121.153247,115.118953 C121.153247,115.118953 121.153247,115.118953 121.153247,115.118953 C120.794805,114.761995 120.436364,114.761995 120.077922,114.761995 C119.719481,114.761995 119.361039,114.761995 119.002597,114.761995 L115.05974,98.3419274 C115.05974,98.3419274 115.05974,98.3419274 115.05974,98.3419274 Z M96.7792208,126.898567 C96.7792208,127.255525 96.7792208,127.612483 97.1376623,127.969441 L78.1402597,140.106013 C76.7064935,138.678181 74.1974026,139.035139 73.1220779,140.462971 L51.974026,129.397273 C51.974026,128.683357 51.974026,128.326399 51.974026,127.612483 C51.974026,127.255525 51.974026,127.255525 51.6155844,126.898567 L58.425974,121.187239 L69.8961039,121.901155 C69.8961039,121.901155 69.8961039,122.258113 69.8961039,122.258113 C70.2545455,123.328987 70.9714286,124.042903 71.6883117,124.399861 C72.0467532,124.399861 72.0467532,124.399861 72.4051948,124.756819 C72.4051948,124.756819 72.7636364,124.756819 72.7636364,124.756819 C72.7636364,124.756819 73.1220779,124.756819 73.4805195,124.756819 C73.4805195,124.756819 73.838961,124.756819 73.838961,124.756819 C73.838961,124.756819 74.1974026,124.756819 74.1974026,124.756819 C74.1974026,124.756819 74.1974026,124.756819 74.1974026,124.756819 C74.5558442,124.756819 74.9142857,124.399861 75.2727273,124.399861 C75.6311688,124.042903 76.3480519,123.685945 76.3480519,122.972029 C76.3480519,122.615071 96.7792208,126.898567 96.7792208,126.898567 Z M50.1818182,125.827693 C49.4649351,125.470735 48.7480519,125.113777 48.0311688,125.113777 L46.5974026,120.116365 L55.9168831,120.830281 C55.9168831,120.830281 50.1818182,125.827693 50.1818182,125.827693 Z M21.1480519,69.7852879 L33.6935065,59.076548 C34.0519481,59.076548 34.0519481,59.433506 34.4103896,59.433506 C34.4103896,59.433506 34.7688312,59.433506 35.1272727,59.433506 L35.8441558,85.8483976 C35.8441558,85.8483976 35.8441558,85.8483976 35.8441558,85.8483976 C35.4857143,85.8483976 35.4857143,85.8483976 35.1272727,86.2053556 C35.1272727,85.8483976 21.1480519,69.7852879 21.1480519,69.7852879 Z M12.187013,77.2814057 L20.0727273,70.4992038 L34.0519481,86.9192716 C33.6935065,87.2762296 33.6935065,87.2762296 33.6935065,87.6331876 L12.5454545,84.4205656 C12.5454545,84.7775236 12.187013,77.2814057 12.187013,77.2814057 Z M11.8285714,62.28917 C11.8285714,62.28917 12.187013,61.932212 11.8285714,62.28917 C12.187013,62.28917 12.187013,62.28917 12.187013,62.28917 C12.187013,62.28917 12.187013,62.28917 12.187013,62.28917 C12.187013,62.28917 12.187013,62.28917 12.5454545,62.28917 L18.9974026,69.7852879 L12.187013,75.8535738 C12.187013,75.4966158 11.8285714,62.28917 11.8285714,62.28917 Z M11.8285714,55.5069681 C11.8285714,55.5069681 11.8285714,55.5069681 11.8285714,55.5069681 L11.1116883,41.9425643 C12.5454545,41.5856063 13.6207792,40.1577743 13.6207792,38.7299424 L21.8649351,36.9451524 L11.8285714,55.5069681 Z M31.9012987,21.9529166 C33.6935065,22.6668326 36.2025974,20.8820427 36.2025974,19.0972527 L51.6155844,16.9555047 C51.6155844,17.3124627 51.974026,17.6694207 51.974026,18.0263787 L42.2961039,29.4490345 C41.9376623,29.4490345 41.5792208,29.0920765 41.2207792,29.0920765 C41.2207792,29.0920765 41.2207792,29.0920765 41.2207792,29.0920765 C40.8623377,29.0920765 40.5038961,29.0920765 39.787013,29.0920765 C38.3532468,29.4490345 36.9194805,30.8768665 36.9194805,32.3046985 L25.0909091,34.8034044 C25.0909091,34.8034044 31.9012987,21.9529166 31.9012987,21.9529166 Z M70.612987,5.53284891 C70.612987,5.53284891 70.9714286,5.8898069 70.9714286,5.8898069 C72.4051948,6.60372289 74.1974026,6.60372289 75.2727273,5.17589092 L88.1766234,12.6720088 L58.0675325,14.8137568 C58.0675325,14.8137568 58.0675325,14.4567988 58.0675325,14.4567988 C58.0675325,14.4567988 58.0675325,14.4567988 58.0675325,14.4567988 C58.0675325,14.4567988 70.612987,5.53284891 70.612987,5.53284891 Z M6.81038961,83.7066496 C6.81038961,83.3496916 6.45194805,82.6357757 6.45194805,82.2788177 L10.7532468,78.7092377 L10.7532468,84.4205656 C11.1116883,84.4205656 6.81038961,83.7066496 6.81038961,83.7066496 Z M138,39.0869004 C138,35.1603624 131.548052,34.8034044 131.18961,39.0869004 L120.794805,40.5147323 L120.077922,33.0186145 C120.794805,32.6616565 121.87013,31.5907825 122.228571,30.5199085 C122.587013,29.0920765 121.87013,27.6642445 120.794805,26.9503286 C120.794805,26.9503286 120.436364,26.9503286 120.436364,26.9503286 C120.077922,26.9503286 120.077922,26.9503286 119.719481,26.5933706 C118.644156,26.2364126 117.21039,26.5933706 116.493506,27.6642445 L104.306494,20.5250847 L104.664935,16.2415887 C107.174026,15.8846307 108.607792,12.6720088 106.457143,10.5302608 C104.664935,8.74547086 101.080519,9.45938685 100.363636,12.3150508 L91.0441558,13.0289668 L76.3480519,4.46197493 C76.7064935,3.39110094 76.3480519,2.32022696 75.9896104,1.24935298 C75.6311688,0.892394985 75.2727273,0.535436991 74.9142857,0.535436991 C73.838961,-0.178478997 72.0467532,-0.178478997 70.9714286,0.535436991 C70.612987,0.892394985 70.2545455,1.24935298 69.8961039,1.60631097 C69.1792208,2.67718496 69.1792208,3.74805894 69.5376623,4.81893292 L57.3506494,13.0289668 C57.3506494,13.0289668 57.3506494,13.0289668 57.3506494,13.0289668 C56.6337662,12.3150508 55.5584416,12.3150508 54.8415584,12.3150508 C54.4831169,12.3150508 54.1246753,12.3150508 53.7662338,12.6720088 C53.7662338,12.6720088 53.4077922,12.6720088 53.4077922,12.6720088 C53.4077922,12.6720088 53.0493506,13.0289668 53.0493506,13.0289668 C52.3324675,13.7428828 51.974026,14.4567988 51.974026,15.1707148 L36.2025974,17.3124627 C35.4857143,15.8846307 34.0519481,14.8137568 32.6181818,15.1707148 C29.7506494,15.5276727 28.3168831,19.4542107 30.825974,21.2390007 L23.2987013,35.5173204 L13.9792208,37.6590684 C10.7532468,31.5907825 3.22597403,41.2286483 10.0363636,42.2995223 L10.3948052,55.8639261 C9.31948052,56.2208841 8.6025974,56.5778421 8.24415584,57.6487161 C8.24415584,57.6487161 7.88571429,58.0056741 7.88571429,58.362632 C7.88571429,58.362632 7.88571429,58.362632 7.88571429,58.362632 C7.88571429,58.362632 7.88571429,58.362632 7.88571429,58.362632 C7.88571429,58.362632 7.88571429,58.362632 7.88571429,58.362632 C7.88571429,58.362632 7.88571429,58.71959 7.88571429,58.71959 C7.88571429,59.076548 7.88571429,59.076548 7.88571429,59.433506 C7.88571429,60.147422 8.6025974,61.218296 9.31948052,61.575254 C9.67792208,61.932212 10.0363636,61.932212 10.0363636,61.932212 C10.3948052,61.932212 10.3948052,61.932212 10.7532468,62.28917 L10.7532468,76.9244477 L5.37662338,81.5649017 C5.01818182,81.2079437 4.3012987,81.2079437 3.94285714,80.8509857 C2.86753247,80.8509857 1.79220779,80.8509857 1.07532468,81.5649017 C0.716883117,82.2788177 0,82.9927336 0,83.7066496 C0,84.7775236 0,85.8483976 0.716883117,86.5623136 C2.50909091,88.3471036 5.73506494,87.9901456 6.45194805,85.4914396 L10.7532468,86.2053556 L11.1116883,104.053255 C8.96103896,104.053255 8.24415584,106.908919 8.6025974,108.336751 C8.6025974,110.121541 11.4701299,110.835457 12.5454545,110.478499 C13.2623377,110.478499 13.9792208,109.764583 14.3376623,109.407625 L27.9584416,117.260701 C27.6,117.974617 27.6,119.045491 27.9584416,119.759407 C27.9584416,119.759407 27.9584416,120.116365 27.9584416,120.116365 C28.6753247,120.473323 29.0337662,120.830281 29.3922078,121.187239 C29.3922078,121.187239 29.3922078,121.187239 29.3922078,121.187239 C30.1090909,121.544197 31.1844156,121.901155 31.9012987,121.544197 C31.9012987,121.544197 32.2597403,121.544197 32.2597403,121.544197 C33.3350649,121.544197 34.0519481,120.116365 34.4103896,119.402449 L44.8051948,120.116365 L46.238961,125.470735 C44.0883117,126.898567 43.7298701,130.111189 46.238961,131.539021 C47.6727273,132.252937 49.4649351,131.895979 50.5402597,130.825105 L71.6883117,141.890803 C70.2545455,147.602131 80.2909091,147.245173 78.4987013,141.533845 L97.4961039,129.397273 C97.8545455,129.754231 98.5714286,130.111189 99.2883117,130.111189 C100.363636,130.111189 101.080519,130.111189 101.797403,129.754231 C102.514286,129.397273 103.231169,128.326399 103.231169,127.612483 C103.58961,126.898567 103.231169,125.827693 102.872727,125.113777 C102.514286,124.399861 101.438961,123.685945 100.722078,123.685945 C99.2883117,123.328987 97.4961039,124.042903 96.7792208,125.470735 L78.1402597,121.544197 L115.776623,118.331575 C116.135065,119.759407 117.927273,120.830281 119.719481,120.830281 C119.719481,120.830281 120.077922,120.830281 120.077922,120.830281 C120.794805,120.830281 121.153247,120.473323 121.511688,120.116365 C121.87013,119.759407 122.228571,119.045491 122.587013,118.688533 C122.587013,118.688533 122.587013,118.688533 122.587013,118.688533 C122.587013,118.688533 122.587013,118.688533 122.587013,118.688533 C122.587013,118.331575 122.587013,117.617659 122.587013,117.260701 C122.587013,117.260701 122.587013,116.903743 122.587013,116.903743 C122.587013,116.546785 122.228571,116.189827 122.228571,116.189827 L130.114286,109.050667 C132.623377,110.478499 136.207792,108.693709 135.490909,105.838045 C135.132468,102.982381 131.548052,101.911507 129.397403,104.053255 L116.493506,96.5571374 C116.493506,96.2001794 116.493506,96.2001794 116.493506,95.8432214 C116.493506,95.4862634 116.493506,95.1293054 116.493506,94.7723475 C116.493506,92.9875575 113.625974,91.9166835 112.192208,92.2736415 C111.475325,92.2736415 110.4,93.3445155 110.041558,93.7014735 C109.683117,94.4153895 109.324675,95.4862634 109.683117,96.5571374 L90.3272727,109.050667 L78.8571429,105.481087 C78.8571429,104.053255 77.7818182,102.625423 76.3480519,101.911507 C76.3480519,101.911507 76.3480519,101.911507 76.3480519,101.911507 C73.4805195,101.197591 70.9714286,104.053255 72.4051948,106.908919 L62.3688312,115.475911 L43.012987,107.265877 L38.7116883,91.9166835 C39.787013,91.5597255 40.1454545,90.4888515 40.5038961,89.4179775 C40.8623377,87.6331876 39.4285714,85.8483976 37.6363636,85.4914396 L36.9194805,59.076548 C37.2779221,59.076548 37.2779221,59.076548 37.6363636,58.71959 C37.6363636,58.71959 37.6363636,58.71959 37.6363636,58.71959 C37.9948052,58.71959 38.3532468,58.362632 38.3532468,58.0056741 C38.7116883,57.6487161 39.0701299,56.9348001 39.4285714,56.2208841 C39.4285714,56.2208841 39.4285714,56.2208841 39.4285714,56.2208841 C39.4285714,55.5069681 39.4285714,54.7930521 39.0701299,54.0791361 L66.3116883,35.5173204 L69.8961039,41.9425643 C66.3116883,45.1551863 72.0467532,50.1525982 74.9142857,46.5830182 C75.9896104,45.5121443 75.9896104,43.7273543 74.9142857,42.2995223 L81.3662338,34.8034044 L98.212987,42.6564803 C98.212987,42.6564803 98.212987,42.6564803 98.212987,43.0134383 C98.212987,43.3703963 98.212987,43.7273543 98.212987,44.0843123 C98.5714286,45.8691023 100.363636,47.2969342 102.155844,46.9399762 C103.58961,46.5830182 104.664935,45.5121443 105.023377,44.0843123 C105.023377,44.0843123 105.023377,43.7273543 105.023377,43.7273543 L119.002597,41.5856063 L120.077922,51.2234722 C117.568831,51.9373882 116.851948,55.5069681 119.361039,57.2917581 C121.511688,58.71959 125.454545,56.9348001 124.737662,54.0791361 C124.737662,53.3652201 124.379221,52.6513041 124.020779,52.2943461 L132.981818,41.5856063 C135.132468,43.0134383 138,41.5856063 138,39.0869004 Z" id="Shape" fill="#E5E3E0"></path>
            <path d="M470.794784,61.6222222 C470.794784,64.4666667 468.291695,66.9555556 465.073439,66.9555556 L455.418668,66.9555556 C452.200412,66.9555556 449.697323,64.4666667 449.697323,61.6222222 L449.697323,37.0888889 C449.697323,34.2444444 452.200412,31.7555556 455.418668,31.7555556 L465.073439,31.7555556 C468.291695,31.7555556 470.794784,34.2444444 470.794784,37.0888889 C470.794784,37.0888889 470.794784,61.6222222 470.794784,61.6222222 Z M465.073439,25.3555556 L455.418668,25.3555556 C448.982155,25.3555556 443.618394,30.3333333 443.618394,36.7333333 L443.618394,61.2666667 C443.618394,67.6666667 448.982155,72.6444444 455.418668,72.6444444 L465.073439,72.6444444 C471.509952,72.6444444 476.873713,67.6666667 476.873713,61.2666667 L476.873713,36.7333333 C476.873713,30.6888889 471.509952,25.3555556 465.073439,25.3555556 Z M574.85175,61.6222222 C574.85175,64.4666667 572.348662,66.9555556 569.130405,66.9555556 L559.475635,66.9555556 C556.257378,66.9555556 553.75429,64.4666667 553.75429,61.6222222 L553.75429,37.0888889 C553.75429,34.2444444 556.257378,31.7555556 559.475635,31.7555556 L569.130405,31.7555556 C572.348662,31.7555556 574.85175,34.2444444 574.85175,37.0888889 L574.85175,61.6222222 Z M569.130405,25.3555556 L559.475635,25.3555556 C553.039121,25.3555556 547.67536,30.3333333 547.67536,36.7333333 L547.67536,61.2666667 C547.67536,67.6666667 553.039121,72.6444444 559.475635,72.6444444 L569.130405,72.6444444 C575.566918,72.6444444 580.930679,67.6666667 580.930679,61.2666667 L580.930679,36.7333333 C580.930679,30.6888889 575.566918,25.3555556 569.130405,25.3555556 Z M631.350034,66.9555556 L618.119423,66.9555556 C614.901167,66.9555556 612.398078,64.4666667 612.398078,61.6222222 L612.398078,37.0888889 C612.398078,34.2444444 614.901167,31.7555556 618.119423,31.7555556 L636.713795,31.7555556 L636.713795,25.3555556 L618.119423,25.3555556 C611.68291,25.3555556 606.319149,30.3333333 606.319149,36.7333333 L606.319149,61.2666667 C606.319149,67.6666667 611.68291,72.6444444 618.119423,72.6444444 L637.428964,72.6444444 L637.428964,47.7555556 L631.350034,47.7555556 L631.350034,66.9555556 Z M367.095402,43.1333333 C367.095402,45.9777778 364.592313,48.4666667 361.374056,48.4666667 L348.143445,48.4666667 L348.143445,31.4 L361.374056,31.4 C364.592313,31.4 367.095402,33.8888889 367.095402,36.7333333 L367.095402,43.1333333 Z M361.374056,25.3555556 L342.064516,25.3555556 L342.064516,73 L348.143445,73 L348.143445,54.5111111 L361.374056,54.5111111 C367.81057,54.5111111 373.174331,49.5333333 373.174331,43.1333333 L373.174331,36.7333333 C373.174331,30.6888889 367.81057,25.3555556 361.374056,25.3555556 Z M236.934798,31.4 L250.165408,31.4 C253.383665,31.4 255.886754,33.8888889 255.886754,36.7333333 L255.886754,41 C255.886754,43.8444444 253.383665,46.3333333 250.165408,46.3333333 L236.934798,46.3333333 L236.934798,31.4 Z M261.965683,41 L261.965683,36.7333333 C261.965683,30.3333333 256.601922,25.3555556 250.165408,25.3555556 L230.855868,25.3555556 L230.855868,73 L236.934798,73 L236.934798,52.3777778 L247.304736,52.3777778 L258.389842,73 L265.541524,73 L254.098833,51.6666667 C258.747426,50.2444444 261.965683,45.9777778 261.965683,41 Z M312.385038,25.3555556 L300.942347,46.6888889 L289.499657,25.3555556 L282.705559,25.3555556 L298.081675,53.8 L298.081675,73 L304.160604,73 L304.160604,53.8 L319.536719,25.3555556 L312.385038,25.3555556 Z M695,25.3555556 L688.205903,25.3555556 L676.763212,46.6888889 L665.320522,25.3555556 L658.526424,25.3555556 L673.902539,53.8 L673.902539,73 L679.981469,73 L679.981469,53.8 L695,25.3555556 Z M389.980782,31.4 L403.926561,31.4 L403.926561,73 L410.005491,73 L410.005491,31.4 L423.95127,31.4 L423.95127,25.3555556 L389.623198,25.3555556 L389.623198,31.4 L389.980782,31.4 Z M508.341112,25.3555556 L502.262183,25.3555556 L502.262183,73 L529.796156,73 L529.796156,66.9555556 L508.341112,66.9555556 L508.341112,25.3555556 Z M180.078929,61.2666667 L180.078929,36.7333333 C180.078929,33.8888889 182.582018,31.4 185.800275,31.4 L204.394647,31.4 L204.394647,25 L185.800275,25 C179.363761,25 174,30.3333333 174,36.7333333 L174,61.2666667 C174,67.6666667 179.363761,72.6444444 185.800275,72.6444444 L204.394647,72.6444444 L204.394647,66.6 L185.800275,66.6 C182.582018,66.6 180.078929,64.4666667 180.078929,61.2666667 Z" id="Shape" fill="#E5E3E0"></path>
            <g id="Group" transform="translate(175.000000, 100.000000)" fill="#FFFFFF">
                <path d="M0.108532619,11.5809524 C0.108532619,4.7047619 5.11007748,0 11.183382,0 C15.8276736,0 18.328446,2.53333333 20.1147121,5.06666667 L16.54218,6.87619048 C15.4704204,5.06666667 13.3269012,3.61904762 10.8261287,3.61904762 C6.8963435,3.61904762 3.68106466,6.87619048 3.68106466,11.5809524 C3.68106466,16.2857143 6.8963435,19.5428571 10.8261287,19.5428571 C13.3269012,19.5428571 15.4704204,18.0952381 16.54218,16.2857143 L19.7574589,18.0952381 C17.9711928,20.6285714 15.4704204,23.1619048 10.8261287,23.1619048 C4.75282428,23.1619048 0.108532619,18.4571429 0.108532619,11.5809524 Z" id="Shape"></path>
                <path d="M31.1895614,14.4761905 L27.6170294,14.4761905 L27.6170294,22.8 L23.6872441,22.8 L23.6872441,0.361904762 L32.9758274,0.361904762 C37.2628659,0.361904762 40.1208915,3.25714286 40.1208915,7.23809524 C40.1208915,11.2190476 37.6201191,13.3904762 35.1193466,13.752381 L40.4781447,22.4380952 L36.1911063,22.4380952 L31.1895614,14.4761905 Z M32.6185742,3.98095238 L27.2597761,3.98095238 L27.2597761,11.2190476 L32.261321,11.2190476 C34.4048402,11.2190476 35.8338531,9.77142857 35.8338531,7.6 C35.8338531,5.42857143 34.7620934,3.98095238 32.6185742,3.98095238 Z" id="Shape"></path>
                <polygon id="Shape" points="49.766728 13.752381 41.5499043 0.361904762 45.8369428 0.361904762 51.9102472 10.1333333 57.6262985 0.361904762 61.913337 0.361904762 53.6965133 13.3904762 53.6965133 22.8 49.766728 22.8 49.766728 13.752381"></polygon>
                <path d="M65.1286158,0.361904762 L74.4171991,0.361904762 C79.0614908,0.361904762 81.5622632,3.61904762 81.5622632,7.23809524 C81.5622632,10.8571429 79.0614908,14.1142857 74.4171991,14.1142857 L68.7011479,14.1142857 L68.7011479,22.4380952 L64.7713626,22.4380952 L64.7713626,0.361904762 L65.1286158,0.361904762 Z M74.0599459,3.98095238 L69.0584011,3.98095238 L69.0584011,11.2190476 L74.0599459,11.2190476 C76.2034651,11.2190476 77.632478,9.77142857 77.632478,7.6 C77.632478,5.42857143 76.2034651,3.98095238 74.0599459,3.98095238 Z" id="Shape"></path>
                <polygon id="Shape" points="90.4935933 3.98095238 84.0630356 3.98095238 84.0630356 0.361904762 100.853936 0.361904762 100.853936 3.98095238 94.4233786 3.98095238 94.4233786 23.1619048 90.4935933 23.1619048 90.4935933 3.98095238"></polygon>
                <path d="M113.715052,0 C120.145609,0 124.789901,5.06666667 124.789901,11.5809524 C124.789901,18.4571429 120.145609,23.1619048 113.715052,23.1619048 C107.284494,23.1619048 102.640202,18.0952381 102.640202,11.5809524 C102.640202,5.06666667 107.284494,0 113.715052,0 Z M113.715052,3.61904762 C109.428013,3.61904762 106.569988,7.23809524 106.569988,11.5809524 C106.569988,16.2857143 109.428013,19.5428571 113.715052,19.5428571 C118.00209,19.5428571 120.860116,15.9238095 120.860116,11.5809524 C120.860116,6.87619048 118.00209,3.61904762 113.715052,3.61904762 Z" id="Shape"></path>
                <path d="M135.86475,11.5809524 C135.86475,4.7047619 140.866295,0 146.9396,0 C151.583891,0 154.084664,2.53333333 155.87093,5.06666667 L152.298398,6.87619048 C151.226638,5.06666667 149.083119,3.61904762 146.582346,3.61904762 C142.652561,3.61904762 139.437282,6.87619048 139.437282,11.5809524 C139.437282,16.2857143 142.652561,19.5428571 146.582346,19.5428571 C149.083119,19.5428571 151.226638,18.0952381 152.298398,16.2857143 L155.513677,18.0952381 C153.72741,20.6285714 151.226638,23.1619048 146.582346,23.1619048 C140.866295,23.1619048 135.86475,18.4571429 135.86475,11.5809524 Z" id="Shape"></path>
                <path d="M169.089298,0 C175.519856,0 180.164148,5.06666667 180.164148,11.5809524 C180.164148,18.4571429 175.519856,23.1619048 169.089298,23.1619048 C162.658741,23.1619048 158.014449,18.0952381 158.014449,11.5809524 C158.014449,5.06666667 162.658741,0 169.089298,0 Z M169.089298,3.61904762 C164.80226,3.61904762 161.944234,7.23809524 161.944234,11.5809524 C161.944234,16.2857143 164.80226,19.5428571 169.089298,19.5428571 C173.376337,19.5428571 176.234362,15.9238095 176.234362,11.5809524 C176.234362,6.87619048 173.376337,3.61904762 169.089298,3.61904762 Z" id="Shape"></path>
                <polygon id="Shape" points="203.028353 5.79047619 196.240542 22.8 194.454276 22.8 188.023718 5.79047619 188.023718 22.8 184.451186 22.8 184.451186 0.361904762 189.809984 0.361904762 195.526035 15.5619048 201.242087 0.361904762 206.600885 0.361904762 206.600885 22.8 202.671099 22.8 202.671099 5.79047619"></polygon>
                <polygon id="Shape" points="230.894103 5.79047619 224.106292 22.8 222.320026 22.8 215.889468 5.79047619 215.889468 22.8 211.959683 22.8 211.959683 0.361904762 217.318481 0.361904762 223.034532 15.5619048 228.750583 0.361904762 234.109381 0.361904762 234.109381 22.8 230.894103 22.8"></polygon>
                <path d="M239.825433,0.361904762 L243.755218,0.361904762 L243.755218,13.752381 C243.755218,17.3714286 245.541484,19.5428571 249.114016,19.5428571 C252.686548,19.5428571 254.472814,17.3714286 254.472814,13.752381 L254.472814,0.361904762 L258.402599,0.361904762 L258.402599,14.1142857 C258.402599,19.5428571 255.187321,23.5238095 249.114016,23.5238095 C242.683458,23.5238095 239.825433,19.9047619 239.825433,14.1142857 L239.825433,0.361904762 Z" id="Shape"></path>
                <polygon id="Shape" points="267.691183 6.51428571 267.691183 22.8 263.761397 22.8 263.761397 0.361904762 267.691183 0.361904762 278.766032 16.2857143 278.766032 0.361904762 282.695817 0.361904762 282.695817 22.8 279.123285 22.8"></polygon>
                <polygon id="Shape" points="288.054615 0.361904762 291.984401 0.361904762 291.984401 22.8 288.054615 22.8"></polygon>
                <polygon id="Shape" points="301.630237 3.98095238 295.199679 3.98095238 295.199679 0.361904762 311.99058 0.361904762 311.99058 3.98095238 305.560022 3.98095238 305.560022 23.1619048 301.630237 23.1619048 301.630237 3.98095238"></polygon>
                <polygon id="Shape" points="322.708176 13.752381 314.491352 0.723809524 318.778391 0.723809524 324.851695 10.4952381 330.567747 0.723809524 334.854785 0.723809524 326.637961 13.752381 326.637961 23.1619048 322.708176 23.1619048 322.708176 13.752381"></polygon>
                <polygon id="Shape" points="345.572381 0.361904762 360.219763 0.361904762 360.219763 3.98095238 349.144913 3.98095238 349.144913 9.77142857 359.862509 9.77142857 359.862509 13.3904762 349.144913 13.3904762 349.144913 19.5428571 360.219763 19.5428571 360.219763 23.1619048 345.572381 23.1619048"></polygon>
                <polygon id="Shape" points="373.438131 14.1142857 367.364827 22.8 363.077788 22.8 371.294612 11.2190476 363.792295 0.361904762 368.436586 0.361904762 374.152638 8.68571429 379.511436 0.361904762 384.155727 0.361904762 376.65341 11.2190476 384.51298 22.8 379.868689 22.8"></polygon>
                <path d="M385.227487,11.5809524 C385.227487,4.7047619 390.229032,0 396.302336,0 C400.946628,0 403.4474,2.53333333 405.233666,5.06666667 L402.018388,6.87619048 C400.946628,5.06666667 398.803109,3.61904762 396.302336,3.61904762 C392.372551,3.61904762 389.157272,6.87619048 389.157272,11.5809524 C389.157272,16.2857143 392.372551,19.5428571 396.302336,19.5428571 C398.803109,19.5428571 400.946628,18.0952381 402.018388,16.2857143 L405.233666,18.0952381 C403.4474,20.6285714 400.946628,23.1619048 396.302336,23.1619048 C389.871779,23.1619048 385.227487,18.4571429 385.227487,11.5809524 Z" id="Shape"></path>
                <polygon id="Shape" points="423.810833 13.0285714 412.735984 13.0285714 412.735984 22.8 408.806198 22.8 408.806198 0.361904762 412.735984 0.361904762 412.735984 9.40952381 423.810833 9.40952381 423.810833 0.361904762 427.740618 0.361904762 427.740618 22.8 423.810833 22.8"></polygon>
                <path d="M446.317785,18.4571429 L435.957442,18.4571429 L434.528429,22.8 L430.241391,22.8 L438.815468,0.361904762 L443.459759,0.361904762 L452.033836,22.8 L447.746798,22.8 L446.317785,18.4571429 Z M437.386455,15.2 L445.603278,15.2 L441.673493,3.98095238 L437.386455,15.2 Z" id="Shape"></path>
                <polygon id="Shape" points="459.1789 6.51428571 459.1789 22.8 455.249115 22.8 455.249115 0.361904762 459.1789 0.361904762 470.25375 16.2857143 470.25375 0.361904762 474.183535 0.361904762 474.183535 22.8 470.611003 22.8"></polygon>
                <path d="M489.545423,0 C493.832461,0 496.333233,2.17142857 498.119499,4.7047619 L494.904221,6.51428571 C493.832461,4.7047619 491.688942,3.61904762 489.188169,3.61904762 C484.901131,3.61904762 481.685852,6.87619048 481.685852,11.5809524 C481.685852,16.2857143 484.901131,19.9047619 489.188169,19.9047619 C491.331689,19.9047619 493.475208,18.8190476 494.189714,17.7333333 L494.189714,14.1142857 L488.11641,14.1142857 L488.11641,10.4952381 L498.476753,10.4952381 L498.476753,18.8190476 C496.333233,21.352381 493.475208,22.8 489.545423,22.8 C483.472118,22.8 478.11332,18.0952381 478.11332,11.2190476 C478.11332,4.7047619 483.114865,0 489.545423,0 Z" id="Shape"></path>
                <polygon id="Shape" points="503.121044 0.361904762 517.768426 0.361904762 517.768426 3.98095238 506.693576 3.98095238 506.693576 9.77142857 517.411173 9.77142857 517.411173 13.3904762 506.693576 13.3904762 506.693576 19.5428571 517.768426 19.5428571 517.768426 23.1619048 503.121044 23.1619048"></polygon>
            </g>
        </g>
    </g>
</svg>